<svg width="617" height="629" viewBox="0 0 617 629" fill="none" xmlns="http://www.w3.org/2000/svg">
<g clip-path="url(#clip0_1291_1715)">
<circle cx="358" cy="287" r="248" fill="#D3E3A7"/>
<ellipse cx="465.5" cy="470" rx="138.5" ry="142" fill="#D3E3A7"/>
<circle cx="256.5" cy="400.5" r="211.5" fill="#D3E3A7"/>
<path d="M135.525 240.003C114.739 212.187 76.6978 205.474 57.7941 219.6C38.8904 233.726 34.548 272.11 55.3331 299.926C74.5723 325.672 109.429 332.694 128.628 323.048C128.566 323.349 128.562 323.66 128.617 323.962L129.699 329.313C129.781 329.721 129.967 330.101 130.238 330.418C130.508 330.734 130.855 330.975 131.246 331.12C131.636 331.264 132.057 331.306 132.468 331.242C132.879 331.178 133.267 331.01 133.595 330.753L142.761 323.593C143.089 323.336 143.346 323.001 143.508 322.617C143.67 322.234 143.731 321.815 143.685 321.401C143.64 320.988 143.489 320.593 143.248 320.253C143.007 319.914 142.683 319.642 142.307 319.464L137.377 317.119C137.203 317.041 137.021 316.983 136.834 316.948C151.633 301.303 154.806 265.805 135.525 240.003Z" fill="white"/>
<path d="M90.0598 229.5C100.227 231.115 109.386 236.572 115.647 244.745C121.908 252.917 124.791 263.182 123.703 273.419C123.48 275.764 127.144 275.749 127.366 273.419C128.414 262.385 125.252 251.362 118.513 242.562C111.775 233.762 101.959 227.835 91.0334 225.969C88.728 225.577 87.7373 229.106 90.0598 229.5Z" fill="#E7E7E7"/>
<path d="M613.097 274.828C624.281 241.955 608.302 206.785 585.962 199.184C563.621 191.583 529.509 209.711 518.324 242.584C507.972 273.012 521.895 305.729 540.708 316.107C540.424 316.227 540.166 316.399 539.948 316.615L536.147 320.534C535.857 320.833 535.648 321.201 535.541 321.603C535.433 322.005 535.43 322.428 535.532 322.831C535.634 323.235 535.837 323.606 536.122 323.909C536.408 324.212 536.766 324.436 537.163 324.562L548.252 328.071C548.649 328.197 549.071 328.219 549.479 328.136C549.887 328.052 550.266 327.866 550.582 327.594C550.897 327.323 551.138 326.975 551.281 326.584C551.425 326.193 551.466 325.773 551.401 325.361L550.546 319.969C550.512 319.782 550.456 319.599 550.38 319.425C571.652 322.781 602.722 305.322 613.097 274.828Z" fill="white"/>
<path d="M596.044 231.394C600.463 240.692 601.143 251.332 597.943 261.117C594.744 270.902 587.91 279.086 578.852 283.978C576.792 285.12 578.877 288.133 580.923 286.999C590.616 281.623 597.918 272.781 601.365 262.247C604.811 251.713 604.148 240.265 599.508 230.199C598.527 228.076 595.057 229.255 596.044 231.394Z" fill="#E7E7E7"/>
<path d="M356.077 107.65C354.557 72.9602 326.896 45.996 303.32 47.0287C279.744 48.0614 254.546 77.341 256.065 112.031C257.472 144.141 282.327 169.567 303.625 172.404C303.404 172.618 303.227 172.872 303.101 173.153L300.983 178.185C300.822 178.568 300.761 178.987 300.807 179.4C300.853 179.814 301.004 180.209 301.245 180.548C301.486 180.887 301.811 181.159 302.186 181.337C302.562 181.516 302.978 181.595 303.393 181.568L315 180.81C315.415 180.783 315.817 180.65 316.166 180.424C316.516 180.198 316.802 179.887 316.997 179.519C317.192 179.152 317.29 178.74 317.282 178.324C317.274 177.908 317.159 177.501 316.949 177.142L314.194 172.428C314.094 172.266 313.976 172.116 313.842 171.982C334.88 167.382 357.486 139.83 356.077 107.65Z" fill="#95C11F"/>
<path d="M324.413 73.3756C331.907 80.4343 336.405 90.1007 336.978 100.38C337.552 110.658 334.157 120.765 327.494 128.614C325.99 130.426 329.026 132.476 330.521 130.675C337.599 122.146 341.191 111.256 340.576 100.189C339.961 89.1227 335.185 78.6977 327.206 71.0049C325.521 69.3832 322.716 71.7419 324.413 73.3756Z" fill="white"/>
<path d="M337.252 362.24C364.729 362.24 387.004 339.966 387.004 312.488C387.004 285.011 364.729 262.736 337.252 262.736C309.775 262.736 287.5 285.011 287.5 312.488C287.5 339.966 309.775 362.24 337.252 362.24Z" fill="#A0616A"/>
<path d="M334.99 627.948H321.27C319.668 627.946 318.132 627.309 316.999 626.176C315.866 625.043 315.229 623.507 315.227 621.905V507.55C315.229 505.948 315.866 504.412 316.999 503.28C318.132 502.147 319.668 501.51 321.27 501.508H334.99C336.592 501.51 338.128 502.147 339.261 503.28C340.394 504.412 341.031 505.948 341.033 507.55V621.905C341.031 623.507 340.394 625.043 339.261 626.176C338.128 627.309 336.592 627.946 334.99 627.948Z" fill="#A0616A"/>
<path d="M378.94 627.948H365.219C363.617 627.946 362.082 627.309 360.949 626.176C359.816 625.043 359.179 623.507 359.177 621.905V507.55C359.179 505.948 359.816 504.412 360.949 503.28C362.082 502.147 363.617 501.51 365.219 501.508H378.94C380.542 501.51 382.078 502.147 383.211 503.28C384.343 504.412 384.981 505.948 384.982 507.55V621.905C384.981 623.507 384.343 625.043 383.211 626.176C382.078 627.309 380.542 627.946 378.94 627.948Z" fill="#A0616A"/>
<path d="M300.686 409.197L294.801 421.591C294.112 423.037 292.877 424.151 291.368 424.688C289.859 425.225 288.198 425.142 286.75 424.457L183.452 375.401C182.005 374.712 180.891 373.478 180.354 371.969C179.817 370.459 179.9 368.799 180.585 367.351L186.471 354.957C187.16 353.511 188.395 352.397 189.904 351.859C191.413 351.322 193.074 351.405 194.522 352.091L297.82 401.146C299.266 401.835 300.38 403.07 300.918 404.579C301.455 406.088 301.372 407.749 300.686 409.197Z" fill="#A0616A"/>
<path d="M316.249 415.84C316.541 417.248 316.317 418.714 315.618 419.97L308.987 431.981C308.211 433.383 306.91 434.419 305.371 434.863C303.832 435.308 302.179 435.123 300.776 434.351L252.234 412.952C250.832 412.176 249.795 410.876 249.351 409.336C248.907 407.797 249.092 406.145 249.865 404.742L262.029 381.985C262.413 381.29 262.929 380.678 263.549 380.183C264.169 379.688 264.881 379.32 265.643 379.1C266.406 378.88 267.204 378.812 267.993 378.901C268.781 378.99 269.544 379.233 270.239 379.616L313.836 408.435C315.249 409.216 315.686 413.823 316.134 415.374C316.179 415.529 316.217 415.684 316.249 415.84Z" fill="#2F2E41"/>
<path d="M375.932 401.146L479.23 352.091C480.678 351.405 482.339 351.322 483.848 351.859C485.357 352.397 486.592 353.511 487.281 354.957L493.166 367.351C493.852 368.799 493.935 370.459 493.398 371.969C492.861 373.478 491.747 374.712 490.3 375.401L387.002 424.457C385.554 425.142 383.893 425.225 382.384 424.688C380.875 424.151 379.64 423.037 378.951 421.591L373.066 409.197C372.38 407.749 372.297 406.088 372.834 404.579C373.371 403.07 374.485 401.835 375.932 401.146Z" fill="#A0616A"/>
<path d="M357.618 415.374C358.066 413.823 358.503 409.216 359.916 408.435L403.513 379.616C404.208 379.233 404.971 378.99 405.759 378.901C406.548 378.812 407.346 378.88 408.109 379.1C408.871 379.32 409.583 379.688 410.203 380.183C410.823 380.678 411.339 381.29 411.723 381.985L423.887 404.741C424.66 406.144 424.845 407.797 424.401 409.336C423.957 410.876 422.92 412.176 421.518 412.952L372.976 434.351C371.573 435.123 369.92 435.308 368.381 434.863C366.841 434.419 365.541 433.383 364.765 431.981L358.134 419.97C357.435 418.714 357.211 417.248 357.503 415.84C357.535 415.684 357.573 415.529 357.618 415.374Z" fill="#2F2E41"/>
<path d="M330.629 330.929L330.577 329.069C334.036 328.973 337.085 328.756 339.377 327.082C340.026 326.581 340.56 325.945 340.942 325.219C341.324 324.492 341.545 323.692 341.59 322.873C341.631 322.372 341.555 321.869 341.369 321.402C341.183 320.935 340.892 320.518 340.519 320.182C338.998 318.897 336.55 319.313 334.766 320.131L333.228 320.836L336.178 299.278L338.02 299.531L335.511 317.869C336.538 317.488 337.644 317.37 338.728 317.526C339.813 317.682 340.841 318.107 341.719 318.762C342.31 319.278 342.773 319.923 343.073 320.647C343.373 321.372 343.502 322.156 343.448 322.938C343.394 324.039 343.1 325.115 342.586 326.09C342.072 327.065 341.351 327.917 340.473 328.584C337.529 330.735 333.703 330.842 330.629 330.929Z" fill="#2F2E41"/>
<path d="M357.143 301.111H347.13V302.971H357.143V301.111Z" fill="#2F2E41"/>
<path d="M325.536 301.111H315.523V302.971H325.536V301.111Z" fill="#2F2E41"/>
<path d="M354.403 385.494H356.409C357.211 385.495 358.006 385.338 358.747 385.032C359.489 384.726 360.163 384.276 360.73 383.709C361.298 383.142 361.748 382.469 362.056 381.728C362.363 380.987 362.521 380.193 362.521 379.39C362.521 378.588 362.363 377.794 362.056 377.052C361.748 376.311 361.298 375.638 360.73 375.071C360.163 374.504 359.489 374.055 358.747 373.749C358.006 373.442 357.211 373.285 356.409 373.286H317.343C315.725 373.288 314.175 373.932 313.032 375.077C311.889 376.221 311.247 377.773 311.247 379.39C311.247 381.008 311.889 382.559 313.032 383.704C314.175 384.848 315.725 385.492 317.343 385.494H321.012C289.66 399.758 269.542 452.449 269.542 485.285C269.542 523.536 297.149 535.875 337.709 535.875C378.268 535.875 416.421 523.536 416.421 485.285C416.421 452.449 388.083 399.758 354.403 385.494Z" fill="#2F2E41"/>
<path d="M335.203 284.075C333.991 280.391 329.617 279.26 326.252 280.65C322.305 282.28 320.067 286.317 316.255 288.225C309.399 291.658 300.303 289.814 295.076 284.313C289.36 278.296 288.234 268.907 291.111 261.311C294.086 253.455 301.466 247.769 309.368 245.46C319.868 242.391 331.133 245.207 340.228 250.867C340.471 251.006 340.742 251.087 341.021 251.105C341.3 251.124 341.58 251.078 341.839 250.973C342.098 250.868 342.329 250.705 342.516 250.497C342.703 250.289 342.841 250.041 342.918 249.773C345.419 240.218 356.207 237.437 364.876 238.462C373.432 239.64 381.572 242.888 388.588 247.925C402.141 257.38 411.694 272.78 413.033 289.36C413.676 297.888 412.447 306.453 409.433 314.457C406.419 322.46 401.692 329.708 395.583 335.692C392.527 338.641 388.967 340.959 385.853 343.832C383.016 346.449 380.219 349.892 380.276 353.965C380.406 363.332 392.731 365.915 400.026 366.196C409.08 366.601 417.973 363.694 425.04 358.018C432.107 352.343 436.865 344.288 438.425 335.36C438.814 333.186 439.015 330.983 439.027 328.775C439.038 326.418 435.375 326.415 435.364 328.775C435.296 337.677 431.793 346.208 425.587 352.589C422.397 355.789 418.6 358.32 414.419 360.032C410.238 361.744 405.757 362.604 401.238 362.561C395.415 362.532 379.638 359.771 384.926 350.559C386.993 346.958 390.703 344.505 393.901 341.999C397.228 339.385 400.248 336.403 402.905 333.11C408.257 326.502 412.201 318.87 414.496 310.683C416.792 302.495 417.389 293.925 416.253 285.498C413.892 268.983 403.878 254.06 390.256 244.636C377.286 235.664 353.314 227.728 341.978 243.274C340.777 244.938 339.898 246.812 339.386 248.799L342.076 247.705C333.314 242.251 322.87 239.422 312.571 241C308.139 241.668 303.889 243.234 300.083 245.6C296.276 247.967 292.992 251.086 290.432 254.765C287.977 258.466 286.475 262.716 286.058 267.136C285.641 271.557 286.323 276.013 288.042 280.107C289.726 284.029 292.503 287.384 296.04 289.773C299.578 292.162 303.727 293.483 307.995 293.58C312.616 293.765 317.163 292.374 320.889 289.634C322.975 288.043 324.577 285.791 326.835 284.436C328.128 283.66 331.035 283.116 331.671 285.049C332.405 287.277 335.943 286.323 335.203 284.075Z" fill="#2F2E41"/>
<path d="M433.215 103.275C442.302 103.847 451.125 106.565 458.959 111.206C466.793 115.846 473.416 122.277 478.285 129.972C479.65 132.153 481.431 134.55 480.486 137.235C480.157 138.265 479.489 139.152 478.59 139.752C477.691 140.353 476.615 140.63 475.538 140.54C472.753 140.201 470.956 137.476 470.613 134.866C470.224 131.905 472.313 129.58 474.892 128.48C481.195 125.791 487.554 129.946 492.688 133.262C504.386 140.818 517.253 147.651 531.428 148.512C544.544 149.309 558.608 144.166 565.902 132.793C567.179 130.803 564.01 128.965 562.74 130.945C555.505 142.224 540.88 146.275 528.163 144.532C520.585 143.336 513.267 140.852 506.527 137.186C503.032 135.372 499.642 133.362 496.321 131.248C493.16 129.042 489.81 127.122 486.31 125.509C480.472 123.111 472.745 123.298 468.667 128.819C464.863 133.97 467.803 142.545 474.166 143.993C480.195 145.365 485.478 139.694 484.237 133.765C483.602 130.732 481.318 127.764 479.55 125.284C474.238 117.812 467.318 111.627 459.299 107.184C451.28 102.741 442.366 100.153 433.215 99.6121C430.859 99.4956 430.865 103.158 433.215 103.275Z" fill="white"/>
<path d="M133.485 160.797C124.397 160.225 115.575 157.507 107.741 152.866C99.9062 148.226 93.2832 141.794 88.4144 134.1C87.0499 131.919 85.2687 129.522 86.2132 126.837C86.5423 125.807 87.2108 124.92 88.1096 124.319C89.0084 123.719 90.0842 123.442 91.1612 123.532C93.9462 123.871 95.7433 126.595 96.0864 129.206C96.4756 132.167 94.3865 134.492 91.8073 135.592C85.5045 138.28 79.1456 134.126 74.0116 130.81C62.3133 123.254 49.4464 116.421 35.2713 115.56C22.1561 114.763 8.09212 119.905 0.797266 131.279C-0.478994 133.268 2.68981 135.107 3.95974 133.127C11.1945 121.848 25.8199 117.796 38.5366 119.54C46.1148 120.736 53.4324 123.22 60.1722 126.885C63.6675 128.699 67.0575 130.71 70.379 132.824C73.5395 135.029 76.8896 136.95 80.3898 138.563C86.2272 140.961 93.9548 140.773 98.0323 135.253C101.836 130.102 98.8965 121.527 92.534 120.079C86.5044 118.707 81.2221 124.378 82.463 130.307C83.0978 133.34 85.3818 136.308 87.1496 138.787C92.4613 146.259 99.3815 152.445 107.401 156.888C115.42 161.331 124.333 163.918 133.485 164.46C135.841 164.576 135.835 160.913 133.485 160.797Z" fill="white"/>
</g>
<defs>
<clipPath id="clip0_1291_1715">
<rect width="616.258" height="629" fill="white" transform="translate(0.5)"/>
</clipPath>
</defs>
</svg>
