<svg width="889" height="697" viewBox="0 0 889 697" fill="none" xmlns="http://www.w3.org/2000/svg">
<circle cx="576" cy="425" r="248" fill="#D3E3A7"/>
<circle cx="363" cy="532" r="158" fill="#D3E3A7"/>
<circle cx="282.5" cy="352.5" r="211.5" fill="#D3E3A7"/>
<path d="M381.53 281.435C395.057 268.238 399.78 246.49 392.08 232.858C384.381 219.227 367.173 218.874 353.647 232.071C340.12 245.267 321.11 280.954 328.81 294.585C336.509 308.217 368.004 294.631 381.53 281.435ZM334.85 288.59C331.969 287.206 331.185 282.855 333.098 278.872C335.012 274.89 338.899 272.784 341.78 274.168C344.661 275.553 345.445 279.904 343.532 283.886C341.618 287.868 337.731 289.974 334.85 288.59Z" fill="#3F3D56"/>
<path d="M364.815 271.393C363.513 270.203 362.21 269.013 360.908 267.823C359.12 266.391 357.655 264.597 356.611 262.558C355.482 259.713 355.198 256.603 355.792 253.6C356.502 249.246 358.535 245.216 361.614 242.057L361.405 245.089C362.97 243.26 364.81 241.686 366.861 240.425C368.79 239.429 370.912 239.499 371.75 241.271C372.71 243.298 371.796 246.936 373.097 248.564C375.347 251.378 381.212 245.3 383.685 247.8C385.127 249.257 384.444 252.713 383.689 255.622C382.91 259.217 381.68 262.698 380.026 265.983C377.016 271.405 371.517 274.988 367.797 273.526C366.682 273.002 365.671 272.279 364.815 271.393Z" fill="#95C11F"/>
<path d="M353.28 272.121C352.595 269.798 354.002 266.777 355.337 264.232L356.011 263.534C357.399 262.836 358.904 262.402 360.451 262.255C361.17 262.201 361.885 262.393 362.481 262.8C363.076 263.206 363.516 263.802 363.727 264.491C364.122 265.855 363.804 267.803 364.748 268.6C366.575 270.14 370.239 265.368 371.982 267.031C372.96 267.964 372.253 270.371 370.995 271.553C369.805 272.543 368.338 273.139 366.794 273.26C364.558 273.632 362.321 274.003 360.084 274.375C358.776 274.676 357.425 274.744 356.093 274.576C355.441 274.472 354.832 274.186 354.335 273.752C353.837 273.318 353.472 272.753 353.28 272.121Z" fill="#2F2E41"/>
<path d="M345.902 273.85C346.374 270.415 349.001 264.886 351.344 260.161L352.258 258.722C353.566 257.161 355.072 255.778 356.738 254.607C358.013 253.91 358.898 254.424 358.577 256.707C358.294 258.727 357.116 262.02 357.576 262.871C358.465 264.516 363.879 255.117 364.638 256.999C365.065 258.055 363.335 262.267 361.687 264.757C360.502 266.586 358.986 268.178 357.218 269.452C355.086 271.085 352.955 272.718 350.823 274.35C349.779 275.299 348.56 276.035 347.233 276.517C346.248 276.693 345.615 275.935 345.902 273.85Z" fill="#FF6584"/>
<path d="M346.641 286.336C346.324 284.795 345.674 283.342 344.735 282.079C343.797 280.817 342.593 279.775 341.208 279.029C339.824 278.282 338.292 277.847 336.721 277.757C335.151 277.666 333.58 277.92 332.118 278.502L307.105 249.576L301.712 268.702L326.292 293.239C327.432 295.629 329.41 297.518 331.85 298.548C334.291 299.578 337.024 299.676 339.532 298.826C342.04 297.975 344.149 296.233 345.46 293.931C346.77 291.629 347.19 288.927 346.641 286.336Z" fill="#FFB8B8"/>
<path d="M263.607 176.17L256.974 187.407C256.974 187.407 274.473 196.076 274.813 202.92C275.153 209.763 276.405 208.028 279.008 209.906C281.612 211.785 284.698 216.652 284.797 222.001C284.895 227.351 326.282 268.801 326.282 268.801L315.01 284.421C311.341 281.005 307.26 278.06 302.862 275.654C296.161 272.138 277.565 265.615 276.214 262C274.863 258.386 269.421 255.758 264.214 252C259.008 248.243 270.166 245.053 261.489 238.791C252.811 232.529 205.726 183.229 197.29 178.461C188.854 173.693 188.8 159.138 188.8 159.138L195.062 150.46L263.607 176.17Z" fill="#3F3D56"/>
<path d="M640.714 469.608V464.119C640.86 462.498 640.86 460.867 640.714 459.246V10.5C640.714 7.71523 639.608 5.04451 637.639 3.07538C635.67 1.10625 632.999 0 630.214 0C627.43 0 624.759 1.10625 622.79 3.07538C620.821 5.04451 619.714 7.71523 619.714 10.5V459.246C619.568 460.867 619.568 462.498 619.714 464.119V469.608L513.418 687.092C515.925 689.599 518.901 691.588 522.177 692.945C525.453 694.302 528.964 695 532.51 695C536.055 695 539.566 694.302 542.842 692.945C546.118 691.588 549.094 689.599 551.602 687.092L619.714 514.277V684.5C619.714 687.285 620.821 689.955 622.79 691.925C624.759 693.894 627.43 695 630.214 695C632.999 695 635.67 693.894 637.639 691.925C639.608 689.955 640.714 687.285 640.714 684.5V514.277L708.827 687.092C711.334 689.599 714.311 691.588 717.586 692.945C720.862 694.302 724.373 695 727.919 695C731.465 695 734.976 694.302 738.251 692.945C741.527 691.588 744.504 689.599 747.011 687.092L640.714 469.608Z" fill="#E6E6E6"/>
<path d="M100.904 412.066C102.317 411.537 103.701 410.933 105.05 410.257C105.119 410.362 105.185 410.469 105.253 410.574L100.904 412.066Z" fill="#E6E6E6"/>
<path d="M841.717 489.661C843.15 490.135 844.607 490.532 846.082 490.85C846.069 490.975 846.054 491.1 846.042 491.224L841.717 489.661Z" fill="#E6E6E6"/>
<path d="M824.663 395.5H435.766C431.245 395.495 426.911 393.697 423.714 390.5C420.518 387.304 418.72 382.97 418.714 378.449V106.551C418.719 102.031 420.517 97.6964 423.714 94.4998C426.911 91.3031 431.245 89.505 435.766 89.5H824.663C829.184 89.5052 833.518 91.3034 836.714 94.5C839.911 97.6966 841.709 102.031 841.714 106.551V378.449C841.709 382.97 839.91 387.304 836.714 390.5C833.517 393.697 829.184 395.495 824.663 395.5Z" fill="#F2F2F2"/>
<path d="M687.714 106.5H572.714C565.423 106.492 558.433 103.592 553.278 98.4363C548.122 93.2809 545.223 86.2909 545.214 79V78.5H715.214V79C715.206 86.2909 712.306 93.2809 707.151 98.4363C701.995 103.592 695.005 106.492 687.714 106.5Z" fill="#E6E6E6"/>
<path d="M688.214 412.5H573.214C565.923 412.492 558.933 409.592 553.778 404.436C548.623 399.281 545.723 392.291 545.714 385V384.5H715.714V385C715.706 392.291 712.806 399.281 707.651 404.436C702.495 409.592 695.505 412.492 688.214 412.5Z" fill="#E6E6E6"/>
<path d="M660.214 343C660.214 359.569 647.783 341 631.214 341C623.258 341 615.627 337.839 610.001 332.213C604.375 326.587 601.214 318.956 601.214 311C601.214 303.044 604.375 295.413 610.001 289.787C615.627 284.161 623.258 281 631.214 281C647.783 281 660.214 326.431 660.214 343Z" fill="#95C11F"/>
<path d="M545.214 193C545.214 200.956 542.054 208.587 536.427 214.213C530.801 219.839 523.171 223 515.214 223C498.646 223 490.214 256.569 490.214 240C490.214 223.431 498.646 163 515.214 163C523.171 163 530.801 166.161 536.427 171.787C542.054 177.413 545.214 185.044 545.214 193Z" fill="#95C11F"/>
<path d="M504.834 159.926C509.164 157.4 514.465 158.269 518.578 160.827C523.256 163.738 525.845 168.75 526.985 174.012C528.129 179.666 528.11 185.494 526.928 191.14C525.813 196.585 522.956 202.37 517.159 203.933C513.296 204.975 508.979 203.632 507.571 199.646C507.029 198.046 506.908 196.332 507.221 194.672C507.533 193.011 508.269 191.459 509.356 190.165C512.608 186.506 518.276 186.317 522.533 188.143C527.54 190.29 530.593 195.138 531.879 200.268C533.408 206.367 532.445 212.694 530.836 218.672C529.087 225.171 526.771 231.523 524.689 237.919C520.628 250.392 516.891 263.102 515.919 276.247C514.435 296.327 521.047 319.498 539.4 330.269C549.307 336.083 561.229 337.01 572.32 334.714C584.017 332.293 594.463 326.251 603.534 318.628C608.248 314.598 612.684 310.255 616.811 305.626C618.054 304.128 619.715 303.032 621.583 302.48C623.45 301.928 625.439 301.943 627.298 302.524C636.84 305.556 635.082 320.832 625.641 322.706C621.351 323.557 616.701 321.494 613.526 318.707C610.051 315.535 607.619 311.384 606.551 306.801C604.149 297.169 606.954 286.565 612.651 278.607C619.087 269.616 629.505 264.018 639.814 260.688C651.551 256.898 663.843 255.781 676.049 254.544C688.54 253.279 701.163 251.803 712.957 247.259C722.447 243.572 731.262 238.341 739.045 231.777C754.734 218.657 765.847 200.89 770.778 181.041C771.926 176.244 772.671 171.358 773.004 166.436C773.136 164.509 770.136 164.517 770.004 166.436C768.535 187.893 758.593 208.303 743.556 223.54C736.056 231.173 727.275 237.431 717.613 242.029C705.972 247.53 693.316 249.691 680.608 251.069C667.63 252.476 654.488 253.306 641.88 256.923C630.734 260.12 619.62 265.543 612.027 274.558C605.332 282.507 601.663 293.413 602.969 303.802C604.185 313.468 610.348 323.419 620.474 325.52C625.226 326.506 630.144 325.252 633.314 321.433C635.072 319.26 636.194 316.643 636.554 313.871C636.915 311.099 636.501 308.281 635.358 305.731C633.899 302.976 631.468 300.863 628.537 299.803C625.606 298.742 622.386 298.81 619.502 299.993C617.393 300.963 615.533 302.4 614.062 304.196C605.407 313.687 595.581 322.545 583.755 327.865C572.724 332.827 559.732 334.692 548.066 330.896C525.981 323.71 517.52 298.459 518.852 277.241C519.723 263.355 523.895 249.943 528.207 236.803C530.41 230.094 532.918 223.402 534.464 216.502C535.849 210.323 536.272 203.778 534.255 197.685C532.494 192.366 528.947 187.631 523.696 185.402C518.925 183.378 513.078 183.426 508.814 186.618C502.648 191.234 502.083 202.679 509.698 206.231C514.752 208.589 520.839 206.754 524.566 202.839C528.745 198.45 530.105 192.265 530.575 186.411C531.464 175.349 529.025 162.007 517.774 157.016C513.139 154.96 507.789 154.728 503.319 157.335C502.99 157.543 502.755 157.87 502.662 158.249C502.57 158.627 502.628 159.026 502.825 159.362C503.021 159.698 503.34 159.945 503.715 160.05C504.09 160.155 504.491 160.111 504.834 159.926Z" fill="#3F3D56"/>
<path d="M774.214 174C774.214 191.57 801.794 236.37 792.514 249.82C791.364 251.5 790.148 253.133 788.864 254.72C784.714 259.91 779.953 264.581 774.684 268.63C773.794 269.33 772.894 270 771.984 270.65C768.75 272.943 765.359 275.005 761.834 276.82C761.194 277.14 760.544 277.46 759.894 277.78C742.076 286.344 721.796 288.309 702.665 283.324C683.534 278.339 666.792 266.729 655.418 250.558C644.044 234.388 638.776 214.706 640.552 195.016C642.327 175.326 651.031 156.905 665.114 143.03C665.854 142.29 666.614 141.57 667.394 140.86C675.131 133.771 684.14 128.209 693.944 124.47C693.954 124.47 693.954 124.46 693.964 124.46C708.669 118.876 724.647 117.542 740.074 120.61H740.094C740.434 120.68 740.774 120.75 741.114 120.83C778.884 128.82 774.214 133.85 774.214 174Z" fill="#95C11F"/>
<path d="M761.844 276.44C761.856 276.567 761.853 276.695 761.834 276.82C761.194 277.14 760.544 277.46 759.894 277.78C759.604 277.69 759.348 277.513 759.161 277.274C758.973 277.035 758.863 276.744 758.844 276.44C758.72 274.929 758.428 273.437 757.974 271.99C754.074 259.43 740.394 253.01 728.454 250.74C713.844 247.95 698.474 249.11 684.574 243.08C678.875 240.761 673.826 237.089 669.864 232.38C665.718 227.194 663.635 220.659 664.014 214.03C664.834 198.44 675.824 186.24 679.584 171.53C681.134 165.47 681.134 159.15 678.374 153.43C676.034 148.57 671.834 144.3 666.234 143.7C666.008 143.684 665.789 143.615 665.595 143.498C665.4 143.382 665.236 143.222 665.114 143.03C665.854 142.29 666.614 141.57 667.394 140.86C668.409 141.012 669.404 141.27 670.364 141.63C675.844 143.73 679.654 148.48 681.794 153.81C684.264 159.98 684.034 166.62 682.314 172.95C678.304 187.71 666.524 200.52 666.984 216.43C667.384 230.22 679.424 238.82 691.564 242.46C706.584 246.96 722.854 244.83 737.714 250.04C749.404 254.14 760.754 263.31 761.844 276.44Z" fill="#3F3D56"/>
<path d="M774.684 268.63C773.794 269.33 772.894 270 771.984 270.65C771.862 270.52 771.77 270.365 771.713 270.196C771.656 270.026 771.636 269.847 771.654 269.67C772.154 256.734 767.694 244.096 759.184 234.34C755.5 230.055 751.118 226.424 746.224 223.6C741.104 220.67 735.484 219.1 729.914 217.28C724.434 215.49 718.864 213.32 714.674 209.23C710.404 205.06 708.304 199.41 707.664 193.57C706.154 179.73 713.084 167.01 713.644 153.38C713.894 147.3 712.554 141.39 708.784 136.5C705.524 132.28 700.714 129.4 695.264 130.04C693.464 130.26 693.374 127.62 694.934 127.11C695.041 127.075 695.152 127.051 695.264 127.04C701.604 126.3 707.354 129.78 711.124 134.66C715.514 140.33 717.034 147.24 716.594 154.31C715.734 167.99 708.534 181.14 710.874 195.04C711.276 197.964 712.287 200.771 713.843 203.279C715.398 205.787 717.463 207.94 719.904 209.6C724.924 212.91 730.854 214.4 736.514 216.24C742.162 217.964 747.499 220.577 752.324 223.98C757.046 227.436 761.185 231.626 764.584 236.39C771.366 245.753 774.911 257.071 774.684 268.63Z" fill="#3F3D56"/>
<path d="M792.514 249.82C791.364 251.5 790.148 253.133 788.864 254.72C790.201 246.951 789.905 238.988 787.994 231.34C785.659 221.711 780.934 212.827 774.254 205.51C770.908 201.868 767.055 198.726 762.814 196.18C757.964 193.28 752.664 190.83 749.234 186.15C741.794 175.99 746.814 162.73 749.214 151.81C750.474 146.11 751.154 140.04 748.824 134.52C747.014 130.24 743.434 126.23 738.574 125.74C736.664 125.55 736.654 122.54 738.574 122.74C738.934 122.78 739.294 122.83 739.654 122.89C744.964 123.85 749.054 127.81 751.274 132.69C754.154 139.06 753.584 145.94 752.114 152.61C749.694 163.58 744.084 178.11 754.114 187.07C758.344 190.85 763.834 192.94 768.394 196.29C772.48 199.277 776.14 202.806 779.274 206.78C788.875 218.987 793.594 234.328 792.514 249.82Z" fill="#3F3D56"/>
<path d="M255.665 664.416H273.411L281.855 595.969H255.665V664.416Z" fill="#FFB6B6"/>
<path d="M246.299 695.163H259.025L261.296 683.148L267.114 695.163H300.867C302.485 695.163 304.06 694.646 305.363 693.687C306.667 692.728 307.629 691.378 308.111 689.834C308.592 688.289 308.567 686.631 308.04 685.102C307.512 683.572 306.509 682.251 305.178 681.332L278.224 662.717V650.57L249.874 652.262L246.299 695.163Z" fill="#2F2E41"/>
<path d="M118.083 629.208L133.347 638.259L175.524 583.694L152.998 570.335L118.083 629.208Z" fill="#FFB6B6"/>
<path d="M94.3436 650.876L105.289 657.367L113.372 648.192L112.247 661.494L141.278 678.711C142.67 679.536 144.289 679.895 145.899 679.735C147.509 679.575 149.025 678.905 150.227 677.822C151.429 676.739 152.254 675.3 152.58 673.715C152.906 672.131 152.718 670.483 152.042 669.014L138.354 639.253L144.55 628.806L119.301 615.8L94.3436 650.876Z" fill="#2F2E41"/>
<path d="M257.585 226.77L272.209 281.744L190.286 282.822L201.065 230.003L257.585 226.77Z" fill="#FFB6B6"/>
<path d="M272.524 281.049L289.923 337.797L297.628 489.554L277.66 634.451H255.563L246.509 491.916L224.241 394.389L237.278 496.392L168.989 596.234H135.433L197.126 486.212L161.214 372C161.214 372 164.816 315.519 187.591 285.517L193.134 269.501L272.524 281.049Z" fill="#2F2E41"/>
<path d="M273.658 176.139C273.611 175.645 273.54 175.127 273.446 174.633C271.675 162.772 265.278 152.094 255.653 144.939C246.028 137.783 233.961 134.732 222.092 136.453C210.945 138.123 200.791 143.803 193.533 152.426V152.45C193.157 152.897 192.804 153.367 192.451 153.837C191.816 154.637 191.228 155.484 190.663 156.331C185.564 164.035 182.938 173.112 183.135 182.349C183.135 182.349 187.417 205.145 188.311 211.19C188.922 215.096 189.393 218.93 189.746 222.67C189.957 224.552 190.122 226.411 190.263 228.222V228.246C190.969 237.209 191.204 245.254 191.416 251.488C191.51 254.876 193.862 264.497 194.004 264.615C194.149 264.725 194.306 264.83 194.472 264.932C195.665 265.627 197.011 266.017 198.391 266.068C199.77 266.118 201.141 265.829 202.382 265.224L212.964 260.286C219.991 257.017 227.801 255.81 235.487 256.807C248.064 258.438 266.384 260.677 267.214 260C268.202 259.153 272.976 216.437 274.223 203.004C274.387 201.075 274.528 199.075 274.599 196.934V196.911C274.805 189.973 274.491 183.03 273.658 176.139Z" fill="#3F3D56"/>
<path d="M334.51 183.819C334.035 185.232 333.256 186.524 332.227 187.603C331.199 188.682 329.947 189.523 328.559 190.066C327.171 190.608 325.68 190.84 324.193 190.745C322.705 190.65 321.257 190.229 319.949 189.513L293.093 213.835L290.225 195.227L316.168 174.983C317.516 172.866 319.593 171.317 322.007 170.63C324.421 169.943 327.002 170.165 329.263 171.254C331.524 172.343 333.307 174.224 334.274 176.54C335.241 178.856 335.325 181.446 334.51 183.819Z" fill="#FFB8B8"/>
<path d="M234.554 136.652C234.554 136.652 260.984 141.588 245.942 192.894L251.75 218.324L279 202.65L280.651 196.024L304.51 179.276L315.791 199.613L302.074 212.72L298.112 220.902L291.076 223.229L269.278 244.058L260.138 249.643C260.138 249.643 248.517 256.844 238.179 252.943C235.42 251.91 232.839 250.449 230.532 248.615C226.02 245.018 222.016 239.518 219.509 231.204C210.208 200.359 206.717 178.79 206.717 178.79L234.554 136.652Z" fill="#3F3D56"/>
<path d="M332.762 208.813L316.761 148.62C316.674 148.292 316.716 147.942 316.878 147.644C317.041 147.346 317.312 147.122 317.635 147.017C317.958 146.913 318.309 146.936 318.615 147.083C318.921 147.23 319.16 147.488 319.281 147.805L340.817 204.063L332.762 208.813Z" fill="#3F3D56"/>
<path d="M346.083 222.46C343.751 221.974 341.484 221.214 339.33 220.195C338.236 219.673 337.178 219.084 336.144 218.476C335.776 218.271 335.409 218.052 335.049 217.84C334.188 217.337 333.326 216.834 332.459 216.324C331.724 215.899 330.983 215.467 330.256 215.036C329.181 214.409 328.026 213.681 327.714 212.471C327.619 211.899 327.652 211.313 327.811 210.755C327.97 210.197 328.251 209.681 328.634 209.245C329.421 208.325 330.331 207.518 331.338 206.846C333.597 205.187 335.857 203.531 338.119 201.877L338.725 200.551C340.562 201.327 342.25 202.418 343.711 203.776C344.289 204.363 344.742 205.06 345.043 205.827C345.344 206.593 345.487 207.413 345.463 208.236C345.442 208.6 345.382 208.961 345.285 209.312C344.848 210.849 343.704 212.158 343.025 213.632C342.887 213.941 342.768 214.258 342.668 214.581C342.364 215.531 342.274 216.536 342.403 217.525C342.533 218.514 342.879 219.462 343.417 220.302C344.087 221.255 345.011 222.003 346.083 222.46Z" fill="#CCCCCC"/>
<path d="M349.429 223.016C348.285 223.1 347.138 222.91 346.083 222.46C347.188 222.701 348.305 222.887 349.429 223.016Z" fill="#E6E6E6"/>
<path d="M346.083 222.46C343.751 221.974 341.484 221.214 339.33 220.196C338.236 219.673 337.178 219.084 336.144 218.476C335.776 218.271 335.409 218.052 335.049 217.84C334.188 217.337 333.326 216.834 332.459 216.324C332.762 215.917 333.087 215.526 333.431 215.153C336.636 211.665 341.014 209.698 345.463 208.236C345.442 208.6 345.382 208.961 345.285 209.312C344.848 210.85 343.704 212.158 343.025 213.632C342.887 213.941 342.768 214.258 342.668 214.581C342.364 215.531 342.274 216.536 342.403 217.525C342.533 218.514 342.879 219.462 343.417 220.302C344.087 221.255 345.011 222.003 346.083 222.46Z" fill="#95C11F"/>
<path d="M253.051 110.991C262.227 94.205 256.058 73.1586 239.272 63.9825C222.486 54.8065 201.44 60.9755 192.264 77.7615C183.088 94.5475 189.257 115.594 206.043 124.77C222.829 133.946 243.875 127.777 253.051 110.991Z" fill="#FFB6B6"/>
<path d="M201.531 66.1133V66.1377C201.535 67.6447 201.343 69.1458 200.959 70.6033C200.899 70.8588 200.826 71.1265 200.74 71.3821V71.3942C199.924 73.997 198.516 76.3754 196.627 78.343C194.737 80.3105 192.418 81.8137 189.85 82.7347C189.473 82.8807 189.084 83.0024 188.694 83.1119C187.874 83.3498 187.036 83.5207 186.188 83.6229C185.426 83.7309 184.657 83.7838 183.888 83.7811C183.287 83.7837 182.685 83.7552 182.087 83.6959C180.687 83.5542 179.309 83.2395 177.986 82.759C177.779 82.6988 177.576 82.6256 177.378 82.54C177.279 82.5047 177.181 82.4641 177.086 82.4183C174.879 81.4943 172.882 80.1314 171.217 78.4122C169.553 76.693 168.255 74.6535 167.403 72.4174C166.55 70.1813 166.161 67.7954 166.259 65.4044C166.357 63.0134 166.94 60.6672 167.972 58.5083L167.984 58.4962C168.849 56.685 170.023 55.038 171.452 53.629C174.64 50.4532 176.045 42.4942 180.888 42.4942C181.119 42.4901 181.351 42.4982 181.581 42.5184C184.83 42.628 190.836 49.638 193.391 51.2928C195.289 52.4917 196.934 54.05 198.234 55.8801C199.591 57.7627 200.559 59.8972 201.081 62.1587C201.38 63.4558 201.531 64.7824 201.531 66.1133Z" fill="#2F2E41"/>
<path d="M179.974 59.9702C177.234 63.1602 172.944 64.4002 169.074 66.0602C162.244 69.0566 156.248 73.6737 151.606 79.5114C146.964 85.349 143.816 92.2308 142.434 99.5602C141.364 105.53 141.504 111.71 139.814 117.53C138.134 123.35 133.974 129.06 128.004 130.07C123.964 130.76 119.914 129.2 116.114 127.66C114.024 126.82 111.934 125.977 109.844 125.13C112.024 119.66 114.201 114.19 116.374 108.72C112.881 113.882 108.819 118.636 104.264 122.89C96.7743 119.87 89.2776 116.85 81.7743 113.83C100.234 113.9 97.0843 95.9802 101.214 78.0002C103.484 68.1202 122.814 61.4302 126.604 52.0302C128.652 46.9317 132.118 42.5266 136.591 39.3363C141.065 36.146 146.358 34.304 151.846 34.0284C157.333 33.7528 162.785 35.055 167.556 37.781C172.326 40.507 176.216 44.5426 178.764 49.4102C182.554 50.9203 182.664 56.8203 179.974 59.9702Z" fill="#2F2E41"/>
<path d="M254.011 59.724C250.631 55.2734 242.117 55.1003 240.409 60.4212L236.818 55.5521C232.16 45.3738 219.87 47.4448 208.757 48.7874C197.644 50.13 187.851 57.961 182.88 67.99C177.908 78.019 177.458 89.9297 180.321 100.751C182.247 108.032 185.784 115.136 191.653 119.855C197.522 124.575 225.112 135.738 227.408 126.126C224.537 138.665 230.313 136.703 238.864 146.314C243.292 133.011 245.368 107.946 249.797 94.6427C250.463 92.6403 251.13 90.6378 251.796 88.6353C253.202 84.4143 254.609 80.1862 255.624 75.8549C256.899 70.4139 257.39 64.1747 254.011 59.724Z" fill="#2F2E41"/>
<path d="M231.241 97.9122L229.761 88.4862C230.767 76.763 229.124 58.1156 236.818 55.5518L241.523 60.2567C238.547 61.2491 232.886 78.78 231.241 97.9122Z" fill="#FF6584"/>
<path d="M242.214 48C242.214 55.1797 239.752 61 236.714 61C233.677 61 231.214 55.1797 231.214 48C231.214 40.8203 236.714 35 236.714 35C236.714 35 242.214 40.8202 242.214 48Z" fill="#FF6584"/>
<path d="M246.751 51.2101C243.866 57.7846 239.272 62.1249 236.491 60.9044C233.709 59.6838 233.793 53.3646 236.678 46.79C239.563 40.2154 246.938 37.0957 246.938 37.0957C246.938 37.0957 249.636 44.6354 246.751 51.2101Z" fill="#FF6584"/>
</svg>
