<svg width="921" height="729" viewBox="0 0 921 729" fill="none" xmlns="http://www.w3.org/2000/svg">
<g clip-path="url(#clip0_1291_1570)">
<circle cx="650" cy="474" r="248" fill="#D3E3A7"/>
<circle cx="471" cy="391" r="158" fill="#D3E3A7"/>
<circle cx="506" cy="562" r="158" fill="#D3E3A7"/>
<circle cx="367.5" cy="517.5" r="211.5" fill="#D3E3A7"/>
<path d="M739.166 172.947H735.167V63.4019C735.167 55.0759 733.527 46.8314 730.341 39.1391C727.154 31.4468 722.484 24.4574 716.597 18.57C710.71 12.6826 703.72 8.01244 696.028 4.82619C688.336 1.63995 680.091 3.93981e-06 671.765 1.54799e-10H439.678C422.863 -3.71302e-05 406.737 6.67975 394.846 18.5699C382.956 30.46 376.276 46.5865 376.276 63.4017V664.376C376.276 681.191 382.956 697.318 394.846 709.208C406.736 721.098 422.863 727.778 439.678 727.778H671.765C688.58 727.778 704.707 721.098 716.597 709.208C728.487 697.318 735.167 681.192 735.167 664.376V250.923H739.166L739.166 172.947Z" fill="#E6E6E6"/>
<path d="M721.672 63.8441V663.934C721.672 676.492 716.683 688.536 707.803 697.415C698.923 706.295 686.88 711.284 674.322 711.284H441.122C428.564 711.284 416.521 706.295 407.641 697.415C398.761 688.536 393.772 676.492 393.772 663.934V63.8441C393.772 51.2862 398.761 39.2427 407.641 30.3629C416.521 21.4831 428.564 16.4944 441.122 16.4941H469.412C468.022 19.9101 467.492 23.6153 467.87 27.2839C468.248 30.9525 469.522 34.472 471.579 37.5328C473.637 40.5936 476.415 43.102 479.669 44.8372C482.923 46.5725 486.554 47.4814 490.242 47.4841H623.202C626.89 47.4814 630.521 46.5724 633.775 44.8372C637.029 43.1019 639.807 40.5936 641.865 37.5328C643.922 34.4719 645.196 30.9525 645.573 27.2839C645.951 23.6153 645.422 19.9101 644.032 16.4941H674.322C686.88 16.4944 698.923 21.4831 707.803 30.3629C716.683 39.2427 721.672 51.2862 721.672 63.8441Z" fill="white"/>
<path d="M453.553 72.1514C445.066 72.1513 436.926 75.5227 430.925 81.5239C424.924 87.525 421.553 95.6643 421.553 104.151C421.553 112.638 424.924 120.777 430.925 126.779C436.926 132.78 445.066 136.151 453.552 136.151C462.039 136.151 470.179 132.78 476.18 126.779C482.181 120.778 485.553 112.638 485.553 104.151C485.553 95.6644 482.181 87.5251 476.18 81.5239C470.179 75.5228 462.04 72.1514 453.553 72.1514Z" fill="#E6E6E6"/>
<path d="M685.891 131.151H517.891C515.77 131.151 513.735 130.309 512.234 128.808C510.734 127.308 509.891 125.273 509.891 123.151C509.891 121.03 510.734 118.995 512.234 117.495C513.735 115.994 515.77 115.151 517.891 115.151H685.891C688.013 115.151 690.048 115.994 691.548 117.495C693.048 118.995 693.891 121.03 693.891 123.151C693.891 125.273 693.048 127.308 691.548 128.808C690.048 130.309 688.013 131.151 685.891 131.151Z" fill="#E6E6E6"/>
<path d="M570.891 97.1514H517.891C515.77 97.1514 513.735 96.3085 512.234 94.8082C510.734 93.3079 509.891 91.2731 509.891 89.1514C509.891 87.0296 510.734 84.9948 512.234 83.4945C513.735 81.9942 515.77 81.1514 517.891 81.1514H570.891C573.013 81.1514 575.048 81.9942 576.548 83.4945C578.048 84.9948 578.891 87.0296 578.891 89.1514C578.891 91.2731 578.048 93.3079 576.548 94.8082C575.048 96.3085 573.013 97.1514 570.891 97.1514Z" fill="#E6E6E6"/>
<path d="M453.553 206.151C445.066 206.151 436.926 209.523 430.925 215.524C424.924 221.525 421.553 229.664 421.553 238.151C421.553 246.638 424.924 254.777 430.925 260.779C436.926 266.78 445.066 270.151 453.552 270.151C462.039 270.151 470.179 266.78 476.18 260.779C482.181 254.778 485.553 246.638 485.553 238.151C485.553 229.664 482.181 221.525 476.18 215.524C470.179 209.523 462.04 206.151 453.553 206.151Z" fill="#E6E6E6"/>
<path d="M685.891 265.151H517.891C515.77 265.151 513.735 264.309 512.234 262.808C510.734 261.308 509.891 259.273 509.891 257.151C509.891 255.03 510.734 252.995 512.234 251.495C513.735 249.994 515.77 249.151 517.891 249.151H685.891C688.013 249.151 690.048 249.994 691.548 251.495C693.048 252.995 693.891 255.03 693.891 257.151C693.891 259.273 693.048 261.308 691.548 262.808C690.048 264.309 688.013 265.151 685.891 265.151Z" fill="#E6E6E6"/>
<path d="M570.891 231.151H517.891C515.77 231.151 513.735 230.309 512.234 228.808C510.734 227.308 509.891 225.273 509.891 223.151C509.891 221.03 510.734 218.995 512.234 217.495C513.735 215.994 515.77 215.151 517.891 215.151H570.891C573.013 215.151 575.048 215.994 576.548 217.495C578.048 218.995 578.891 221.03 578.891 223.151C578.891 225.273 578.048 227.308 576.548 228.808C575.048 230.309 573.013 231.151 570.891 231.151Z" fill="#E6E6E6"/>
<path d="M453.553 474.151C445.066 474.151 436.926 477.523 430.925 483.524C424.924 489.525 421.553 497.664 421.553 506.151C421.553 514.638 424.924 522.777 430.925 528.779C436.926 534.78 445.066 538.151 453.552 538.151C462.039 538.151 470.179 534.78 476.18 528.779C482.181 522.778 485.553 514.638 485.553 506.151C485.553 497.664 482.181 489.525 476.18 483.524C470.179 477.523 462.04 474.151 453.553 474.151Z" fill="#E6E6E6"/>
<path d="M685.891 533.151H517.891C515.77 533.151 513.735 532.309 512.234 530.808C510.734 529.308 509.891 527.273 509.891 525.151C509.891 523.03 510.734 520.995 512.234 519.495C513.735 517.994 515.77 517.151 517.891 517.151H685.891C688.013 517.151 690.048 517.994 691.548 519.495C693.048 520.995 693.891 523.03 693.891 525.151C693.891 527.273 693.048 529.308 691.548 530.808C690.048 532.309 688.013 533.151 685.891 533.151Z" fill="#E6E6E6"/>
<path d="M570.891 499.151H517.891C515.77 499.151 513.735 498.309 512.234 496.808C510.734 495.308 509.891 493.273 509.891 491.151C509.891 489.03 510.734 486.995 512.234 485.495C513.735 483.994 515.77 483.151 517.891 483.151H570.891C573.013 483.151 575.048 483.994 576.548 485.495C578.048 486.995 578.891 489.03 578.891 491.151C578.891 493.273 578.048 495.308 576.548 496.808C575.048 498.309 573.013 499.151 570.891 499.151Z" fill="#E6E6E6"/>
<path d="M453.553 608.151C445.066 608.151 436.926 611.523 430.925 617.524C424.924 623.525 421.553 631.664 421.553 640.151C421.553 648.638 424.924 656.777 430.925 662.779C436.926 668.78 445.066 672.151 453.552 672.151C462.039 672.151 470.179 668.78 476.18 662.779C482.181 656.778 485.553 648.638 485.553 640.151C485.553 631.664 482.181 623.525 476.18 617.524C470.179 611.523 462.04 608.151 453.553 608.151Z" fill="#E6E6E6"/>
<path d="M685.891 667.151H517.891C515.77 667.151 513.735 666.309 512.234 664.808C510.734 663.308 509.891 661.273 509.891 659.151C509.891 657.03 510.734 654.995 512.234 653.495C513.735 651.994 515.77 651.151 517.891 651.151H685.891C688.013 651.151 690.048 651.994 691.548 653.495C693.048 654.995 693.891 657.03 693.891 659.151C693.891 661.273 693.048 663.308 691.548 664.808C690.048 666.309 688.013 667.151 685.891 667.151Z" fill="#E6E6E6"/>
<path d="M570.891 633.151H517.891C515.77 633.151 513.735 632.309 512.234 630.808C510.734 629.308 509.891 627.273 509.891 625.151C509.891 623.03 510.734 620.995 512.234 619.495C513.735 617.994 515.77 617.151 517.891 617.151H570.891C573.013 617.151 575.048 617.994 576.548 619.495C578.048 620.995 578.891 623.03 578.891 625.151C578.891 627.273 578.048 629.308 576.548 630.808C575.048 632.309 573.013 633.151 570.891 633.151Z" fill="#E6E6E6"/>
<path d="M750.722 449.151H364.722C360.347 449.146 356.153 447.406 353.06 444.313C349.967 441.22 348.227 437.026 348.222 432.651V308.651C348.227 304.277 349.967 300.083 353.06 296.99C356.153 293.896 360.347 292.156 364.722 292.151H750.722C755.096 292.156 759.29 293.896 762.384 296.99C765.477 300.083 767.217 304.277 767.222 308.651V432.651C767.217 437.026 765.477 441.22 762.384 444.313C759.29 447.406 755.096 449.146 750.722 449.151Z" fill="white"/>
<path d="M412.125 416.378C403.082 416.378 394.241 413.696 386.721 408.672C379.202 403.647 373.341 396.506 369.88 388.15C366.419 379.795 365.514 370.601 367.278 361.731C369.042 352.861 373.397 344.714 379.792 338.319C386.187 331.924 394.335 327.569 403.205 325.804C412.075 324.04 421.269 324.946 429.624 328.406C437.979 331.867 445.121 337.728 450.145 345.248C455.17 352.767 457.851 361.608 457.851 370.652C457.838 382.775 453.016 394.398 444.443 402.97C435.871 411.542 424.248 416.364 412.125 416.378ZM412.125 326.926C403.477 326.926 395.023 329.49 387.832 334.295C380.642 339.1 375.037 345.929 371.728 353.919C368.418 361.909 367.552 370.7 369.239 379.182C370.927 387.664 375.091 395.456 381.206 401.571C387.322 407.686 395.113 411.851 403.595 413.538C412.077 415.225 420.869 414.359 428.859 411.049C436.849 407.74 443.678 402.136 448.482 394.945C453.287 387.754 455.851 379.3 455.851 370.652C455.838 359.059 451.227 347.945 443.03 339.747C434.833 331.55 423.718 326.939 412.125 326.926Z" fill="#3F3D56"/>
<path d="M736.863 408.389H502.051C500.582 408.391 499.126 408.103 497.769 407.541C496.411 406.98 495.177 406.157 494.137 405.118C493.098 404.08 492.273 402.847 491.711 401.489C491.148 400.132 490.859 398.677 490.859 397.208C490.859 395.739 491.148 394.284 491.711 392.926C492.273 391.569 493.098 390.336 494.137 389.298C495.177 388.259 496.411 387.436 497.769 386.874C499.126 386.313 500.582 386.025 502.051 386.026H736.863C738.332 386.025 739.788 386.313 741.146 386.874C742.503 387.436 743.737 388.259 744.777 389.298C745.816 390.336 746.641 391.569 747.203 392.926C747.766 394.284 748.055 395.739 748.055 397.208C748.055 398.677 747.766 400.132 747.203 401.489C746.641 402.847 745.816 404.08 744.777 405.118C743.737 406.157 742.503 406.98 741.146 407.541C739.788 408.103 738.332 408.391 736.863 408.389Z" fill="#95C11F"/>
<path d="M576.129 360.868H502.051C500.582 360.869 499.126 360.581 497.769 360.02C496.411 359.459 495.177 358.635 494.137 357.597C493.098 356.558 492.273 355.325 491.711 353.968C491.148 352.611 490.859 351.156 490.859 349.686C490.859 348.217 491.148 346.762 491.711 345.405C492.273 344.048 493.098 342.815 494.137 341.776C495.177 340.738 496.411 339.914 497.769 339.353C499.126 338.792 500.582 338.503 502.051 338.505H576.129C577.598 338.503 579.053 338.792 580.411 339.353C581.769 339.914 583.003 340.738 584.042 341.776C585.081 342.815 585.906 344.048 586.469 345.405C587.031 346.762 587.321 348.217 587.321 349.686C587.321 351.156 587.031 352.611 586.469 353.968C585.906 355.325 585.081 356.558 584.042 357.597C583.003 358.635 581.769 359.459 580.411 360.02C579.053 360.581 577.598 360.869 576.129 360.868Z" fill="#95C11F"/>
<path d="M750.722 449.151H364.722C360.347 449.146 356.153 447.406 353.06 444.313C349.967 441.22 348.227 437.026 348.222 432.651V308.651C348.227 304.277 349.967 300.083 353.06 296.99C356.153 293.896 360.347 292.156 364.722 292.151H750.722C755.096 292.156 759.29 293.896 762.384 296.99C765.477 300.083 767.217 304.277 767.222 308.651V432.651C767.217 437.026 765.477 441.22 762.384 444.313C759.29 447.406 755.096 449.146 750.722 449.151ZM364.722 293.151C360.612 293.156 356.673 294.791 353.767 297.696C350.861 300.602 349.227 304.542 349.222 308.651V432.651C349.227 436.761 350.861 440.701 353.767 443.606C356.673 446.512 360.612 448.147 364.722 448.151H750.722C754.831 448.147 758.771 446.512 761.677 443.606C764.583 440.701 766.217 436.761 766.222 432.651V308.651C766.217 304.542 764.583 300.602 761.677 297.696C758.771 294.791 754.831 293.156 750.722 293.151H364.722Z" fill="#3F3D56"/>
<path d="M411.317 392.904C421.62 392.904 429.972 384.552 429.972 374.25C429.972 363.947 421.62 355.596 411.317 355.596C401.015 355.596 392.663 363.947 392.663 374.25C392.663 384.552 401.015 392.904 411.317 392.904Z" fill="#2F2E41"/>
<path d="M396.757 364.192C399.771 361.177 400.382 356.901 398.121 354.64C395.86 352.379 391.584 352.99 388.569 356.005C385.555 359.019 384.944 363.296 387.205 365.557C389.466 367.817 393.742 367.206 396.757 364.192Z" fill="#2F2E41"/>
<path d="M430.76 358.268C432.016 355.328 429.856 351.586 425.936 349.912C422.015 348.237 417.819 349.263 416.563 352.203C415.307 355.144 417.467 358.885 421.387 360.56C425.308 362.234 429.504 361.208 430.76 358.268Z" fill="#2F2E41"/>
<path d="M411.909 394.534C420.652 394.534 427.741 387.446 427.741 378.703C427.741 369.959 420.652 362.871 411.909 362.871C403.165 362.871 396.077 369.959 396.077 378.703C396.077 387.446 403.165 394.534 411.909 394.534Z" fill="#FFB8B8"/>
<path d="M395.274 368.744C398.891 371.238 403.185 372.565 407.579 372.547C406.012 373.634 404.228 374.368 402.349 374.699C408.191 375.952 414.229 375.986 420.084 374.799C421.386 374.59 422.642 374.159 423.797 373.523C424.373 373.202 424.874 372.763 425.269 372.235C425.664 371.707 425.943 371.102 426.089 370.459C426.478 368.236 424.746 366.216 422.946 364.855C420.19 362.803 417.012 361.389 413.643 360.716C410.273 360.043 406.796 360.127 403.463 360.962C401.243 361.409 399.222 362.551 397.693 364.223C396.28 365.971 395.861 368.665 397.208 370.465L395.274 368.744Z" fill="#2F2E41"/>
<path d="M178.235 511.165C177.772 509.664 177.644 508.08 177.859 506.525C178.074 504.969 178.628 503.479 179.482 502.161C180.335 500.842 181.467 499.727 182.798 498.893C184.129 498.06 185.626 497.528 187.185 497.336L238.518 437.353L250.491 449.923L199.36 507.437C199.509 510.077 198.685 512.68 197.044 514.753C195.402 516.826 193.057 518.224 190.453 518.684C187.849 519.143 185.167 518.632 182.916 517.246C180.664 515.86 178.998 513.697 178.235 511.165Z" fill="#A0616A"/>
<path d="M221.818 446.719C221.766 446.074 221.853 445.426 222.074 444.818C222.295 444.211 222.644 443.658 223.098 443.197L238.957 427.116C240.908 424.443 243.84 422.653 247.11 422.138C250.379 421.624 253.719 422.427 256.397 424.372C259.074 426.317 260.871 429.245 261.393 432.513C261.915 435.781 261.119 439.123 259.18 441.805L248.636 461.861C248.335 462.433 247.914 462.934 247.402 463.329C246.89 463.724 246.299 464.004 245.669 464.15C245.039 464.296 244.385 464.305 243.751 464.175C243.118 464.046 242.52 463.781 241.998 463.4L223.648 449.989C223.126 449.608 222.692 449.118 222.376 448.554C222.06 447.989 221.87 447.364 221.818 446.719Z" fill="white"/>
<path d="M259.056 409.915C272.621 409.915 283.617 398.919 283.617 385.354C283.617 371.789 272.621 360.793 259.056 360.793C245.491 360.793 234.495 371.789 234.495 385.354C234.495 398.919 245.491 409.915 259.056 409.915Z" fill="#A0616A"/>
<path d="M245.701 495.262C245.213 494.899 244.804 494.439 244.501 493.912C244.197 493.385 244.004 492.802 243.935 492.197C242.237 478.003 239.766 463.912 236.533 449.987C235.101 443.73 235.99 437.165 239.035 431.514C242.079 425.863 247.072 421.509 253.084 419.262C259.097 417.015 265.721 417.028 271.726 419.297C277.73 421.567 282.706 425.939 285.729 431.601C295.389 449.729 296.126 474.618 295.995 484.477C295.981 485.53 295.597 486.543 294.911 487.342C294.225 488.14 293.281 488.672 292.242 488.845L249.147 496.098C248.896 496.141 248.642 496.162 248.387 496.162C247.418 496.162 246.475 495.846 245.701 495.262Z" fill="#2F2E41"/>
<path d="M338.741 415.29C338.618 415.83 338.538 416.378 338.501 416.931L295.544 441.713L285.102 435.702L273.971 450.274L291.422 462.711C292.831 463.716 294.529 464.237 296.26 464.195C297.99 464.152 299.661 463.55 301.02 462.478L345.316 427.532C347.315 428.272 349.492 428.386 351.558 427.858C353.623 427.331 355.479 426.187 356.878 424.579C358.278 422.971 359.155 420.975 359.392 418.857C359.63 416.738 359.216 414.598 358.208 412.72C357.199 410.842 355.642 409.316 353.745 408.344C351.848 407.373 349.7 407.002 347.586 407.281C345.473 407.56 343.495 408.476 341.915 409.906C340.334 411.337 339.227 413.215 338.741 415.29Z" fill="#A0616A"/>
<path d="M294.108 442.886L280.224 460.88C279.829 461.392 279.328 461.813 278.756 462.114C278.184 462.415 277.553 462.589 276.907 462.625C276.262 462.66 275.616 462.556 275.014 462.319C274.412 462.082 273.869 461.719 273.42 461.253L257.703 444.932C255.095 442.896 253.401 439.909 252.993 436.626C252.584 433.343 253.493 430.032 255.522 427.418C257.551 424.805 260.533 423.102 263.815 422.684C267.097 422.266 270.41 423.166 273.029 425.188L292.742 436.21C293.307 436.526 293.796 436.96 294.178 437.482C294.56 438.004 294.824 438.602 294.954 439.236C295.083 439.869 295.075 440.523 294.929 441.153C294.783 441.783 294.503 442.374 294.108 442.886Z" fill="white"/>
<path d="M315.752 716.442L328.012 716.441L330.898 669.306L315.75 669.154L315.752 716.442Z" fill="#A0616A"/>
<path d="M312.625 712.439L336.769 712.438H336.77C338.79 712.438 340.791 712.836 342.658 713.61C344.525 714.383 346.221 715.516 347.65 716.945C349.078 718.374 350.212 720.07 350.985 721.937C351.758 723.803 352.156 725.804 352.156 727.825V728.325L312.626 728.326L312.625 712.439Z" fill="#2F2E41"/>
<path d="M198.752 716.442L211.012 716.441L216.844 669.153L198.75 669.154L198.752 716.442Z" fill="#A0616A"/>
<path d="M195.625 712.439L219.769 712.438H219.77C221.79 712.438 223.791 712.836 225.658 713.61C227.525 714.383 229.221 715.516 230.65 716.945C232.078 718.374 233.212 720.07 233.985 721.937C234.758 723.803 235.156 725.804 235.156 727.825V728.325L195.626 728.326L195.625 712.439Z" fill="#2F2E41"/>
<path d="M212.114 691.883L196.899 689.898C196.263 689.815 195.652 689.598 195.108 689.259C194.563 688.921 194.097 688.47 193.741 687.937C193.384 687.404 193.146 686.801 193.042 686.169C192.937 685.536 192.969 684.889 193.136 684.27L215.33 575.208C217.536 564.62 219.062 553.902 219.9 543.119C220.548 534.346 223.116 521.939 231.672 512.663C235.152 508.856 238.399 504.844 241.397 500.647L248.115 491.346L292.867 484.226L292.898 484.779C294.831 520.34 304.068 555.122 320.032 586.957C327.214 601.275 331.336 616.931 332.136 632.929L334.672 682.381C334.704 683.007 334.604 683.634 334.38 684.22C334.155 684.805 333.811 685.338 333.369 685.783C332.929 686.231 332.398 686.58 331.813 686.808C331.228 687.036 330.601 687.137 329.974 687.105L315.429 686.444C314.443 686.398 313.499 686.03 312.743 685.395C311.987 684.761 311.459 683.896 311.242 682.934L299.098 628.754C298.989 628.271 298.779 627.816 298.483 627.419L260.373 576.605C260.101 576.243 259.735 575.961 259.316 575.79C258.896 575.619 258.438 575.565 257.99 575.635C257.543 575.704 257.122 575.893 256.774 576.183C256.425 576.473 256.162 576.852 256.013 577.279L216.943 688.906C216.632 689.786 216.056 690.548 215.294 691.087C214.533 691.627 213.623 691.918 212.69 691.92C212.497 691.92 212.305 691.908 212.114 691.883Z" fill="#2F2E41"/>
<path d="M231.898 368.307C233.849 362.392 235.29 356.322 236.203 350.161C236.49 346.575 235.571 342.716 232.96 340.241C228.071 335.61 219.767 337.816 214.655 342.199C207.267 348.533 203.583 358.267 202.19 367.899C200.798 377.53 201.41 387.324 201.075 397.05C200.74 406.775 199.349 416.776 194.391 425.149C189.432 433.523 180.231 439.95 170.526 439.238C166.608 439.026 162.889 437.45 160.012 434.782C158.6 433.439 157.531 431.776 156.894 429.934C156.256 428.092 156.07 426.125 156.351 424.196C151.39 433.078 153.905 445.117 161.304 452.1C168.703 459.082 180.084 461.056 189.811 458.075C199.538 455.094 207.544 447.618 212.326 438.638C217.107 429.659 218.86 419.285 218.606 409.115C218.411 401.305 217.083 393.431 218.403 385.73C219.723 378.03 224.542 370.211 232.141 368.398L231.898 368.307Z" fill="#2F2E41"/>
<path d="M266.025 378.431C267.32 382.759 272.276 385.428 276.734 384.696C281.193 383.964 284.859 380.292 286.213 375.982C287.438 371.58 286.937 366.877 284.811 362.832C283.64 360.407 282.003 358.237 279.992 356.446C277.981 354.655 275.637 353.279 273.094 352.395C270.536 351.547 267.812 351.327 265.152 351.752C262.491 352.177 259.971 353.235 257.805 354.838C257.575 353.865 257.089 352.972 256.398 352.25C255.708 351.528 254.837 351.003 253.876 350.729C251.941 350.207 249.898 350.237 247.979 350.816C242.45 352.391 237.658 355.877 234.457 360.653C231.296 365.414 229.205 370.804 228.328 376.451C226.82 384.919 227.376 394.173 232.132 401.341C236.889 408.508 246.619 412.74 254.513 409.323C255.006 406.807 253.839 404.273 252.49 402.092C251.141 399.912 249.542 397.788 249.024 395.276C248.506 392.765 249.499 389.693 251.928 388.872C254.001 388.172 256.21 389.307 258.393 389.444C259.633 389.522 260.872 389.272 261.985 388.72C263.097 388.168 264.046 387.333 264.734 386.299C265.423 385.265 265.827 384.068 265.907 382.829C265.986 381.589 265.739 380.35 265.189 379.236L266.025 378.431Z" fill="#2F2E41"/>
</g>
<defs>
<clipPath id="clip0_1291_1570">
<rect width="920" height="728.787" fill="white" transform="translate(0.5)"/>
</clipPath>
</defs>
</svg>
