<svg width="826" height="592" viewBox="0 0 826 592" fill="none" xmlns="http://www.w3.org/2000/svg">
<g clip-path="url(#clip0_1291_1660)">
<path d="M484.919 117.911C486.331 118.3 487.64 118.993 488.755 119.942C489.87 120.892 490.763 122.074 491.372 123.406C491.981 124.738 492.29 126.187 492.278 127.651C492.266 129.115 491.933 130.559 491.302 131.88L506.609 148.898L498.536 160.722L477.258 136.386C475.108 135.18 473.475 133.227 472.669 130.898C471.862 128.568 471.938 126.023 472.883 123.746C473.827 121.469 475.574 119.617 477.792 118.542C480.011 117.466 482.546 117.242 484.919 117.911Z" fill="#A0616A"/>
<path d="M628.215 159.698C626.835 157.452 625.026 155.501 622.89 153.956C620.754 152.411 618.335 151.303 615.77 150.695C613.205 150.087 610.545 149.992 607.943 150.414C605.341 150.836 602.848 151.768 600.607 153.156L550.268 184.333L495.967 138.176L482.457 150.754L542.444 228.584L620.41 187.94C618.59 188.888 630.414 163.277 628.215 159.698Z" fill="#EFEFEF"/>
<path d="M528.492 263.365C528.497 288.226 523.604 312.845 514.092 335.816C504.58 358.786 490.636 379.657 473.056 397.237C455.476 414.817 434.605 428.761 411.635 438.273C388.665 447.784 364.046 452.678 339.184 452.673C234.633 452.673 149.876 367.915 149.876 263.365C149.858 243.028 153.118 222.821 159.531 203.522C172.121 165.831 196.241 133.052 228.48 109.819C260.719 86.586 299.446 74.0756 339.184 74.0567C373.456 74.0447 407.087 83.3398 436.489 100.949C465.89 118.559 489.958 143.823 506.122 174.043C510.13 181.499 513.626 189.219 516.587 197.149C516.997 198.253 517.396 199.357 517.785 200.472V200.483C519.521 205.384 521.049 210.376 522.371 215.459C526.448 231.101 528.505 247.2 528.492 263.365Z" fill="#3F3D56"/>
<path d="M318.472 135.64C309.965 131.04 300.519 128.443 290.855 128.047C281.192 127.652 271.565 129.469 262.711 133.359C254.914 136.752 246.705 142.839 244.104 153.83C254.623 147.622 268.24 157.431 270.946 173.166L270.315 173.34C268.885 184.238 272.076 196.104 278.255 202.862C279.066 195.842 283.682 191.065 288.222 188.081C292.762 185.096 297.784 182.928 301.249 177.799C305.357 171.717 306.4 162.83 308.032 154.722C309.664 146.614 312.76 137.899 318.472 135.64Z" fill="white"/>
<path d="M259.59 228.384C256.677 232.759 252.786 235.505 249.294 238.923C245.813 242.351 242.5 246.979 241.806 252.921C241.364 256.728 242.048 260.598 241.953 264.448C241.859 268.297 240.576 272.63 237.957 273.587C233.824 275.08 230.668 267.403 226.42 266.866C223.043 266.446 220.004 271.757 220.982 276.363C221.96 280.97 226.556 283.01 229.196 280.002C231.584 284.009 229.901 291.277 226.314 292.507C225.936 295.031 225.557 297.545 225.189 300.069C216.123 293.727 206.963 287.28 199.254 277.994C190.68 267.753 185.362 255.183 183.983 241.899C182.984 231.224 184.467 219.014 179.566 210.8C175.643 204.227 168.912 202.775 162.854 203.186C161.75 203.259 160.635 203.385 159.531 203.522C163.103 192.792 167.641 182.408 173.087 172.497C174.32 171.967 175.465 171.255 176.484 170.383C182.121 165.597 184.625 155.911 189.199 149.212C189.494 148.78 189.799 148.36 190.114 147.95C194.795 141.839 201.063 138.694 207.121 135.771C220.53 129.261 234.328 122.666 248.484 123.571L244.456 123.96C239.755 137.127 235.051 150.295 230.342 163.462C229.627 165.482 228.905 167.504 228.176 169.531C225.505 177.019 222.749 184.991 223.159 193.373C223.401 198.337 225.126 203.638 228.407 205.341C231.468 206.919 234.812 204.984 237.767 203.07C239.019 202.27 240.26 201.471 241.512 200.661C246.002 197.769 250.977 194.803 255.72 196.738C260.064 198.505 263.271 204.405 263.882 210.768C264.441 216.953 262.932 223.149 259.59 228.384Z" fill="white"/>
<path d="M286.3 318.282C273.184 310.206 260.068 302.13 246.952 294.055L247.175 293.481C239.02 296.587 235.634 311.083 236.982 322.937C238.329 334.792 242.899 345.389 245.208 356.94C248.321 372.746 247.146 389.098 241.805 404.297C259.052 384.945 274.315 363.913 287.365 341.517C289.188 338.694 290.578 335.613 291.487 332.378C292.32 328.937 292.192 324.799 290.523 322.039C289.449 320.455 287.998 319.164 286.3 318.282Z" fill="white"/>
<path d="M234.536 171.362C233.143 174.494 232.607 178.669 233.871 181.909C235.162 185.218 237.89 186.714 240.403 187.959L247.65 191.551C250.061 192.746 252.659 193.953 255.117 192.97C258.082 191.784 260.137 187.137 259.605 182.822C259.039 178.231 256.145 175.073 253.469 172.383C249.723 168.62 245.978 164.856 242.232 161.093L240.121 163.678C237.838 165.905 235.949 168.503 234.536 171.362Z" fill="white"/>
<path d="M489.642 220.444C492.902 221.212 496.162 221.979 499.423 222.747C498.855 233.759 493.396 243.95 486.077 247.641C483.027 249.177 479.63 249.745 477.105 252.616C474.823 255.224 473.666 259.284 472.604 263.164C470.742 269.938 468.881 276.711 467.019 283.483C465.021 290.782 462.455 298.891 457.26 301.52C452.8 303.782 447.7 301.015 444.271 296.377C440.842 291.739 438.749 285.503 436.72 279.424C436.846 286.05 433.764 292.549 429.4 294.852C425.025 297.156 419.703 295.073 416.779 289.931C414.676 286.239 413.803 281.369 411.741 277.625C409.68 273.881 405.358 271.736 403.107 275.249C401.624 277.583 401.813 281.159 401.077 284.125C399.931 288.731 396.46 291.624 393.021 291.876C389.593 292.129 386.248 290.151 383.377 287.469C377.456 281.916 373.091 273.103 371.398 263.312C370.651 258.947 370.441 254.193 371.735 250.102C373.028 246.011 376.152 242.856 379.254 243.634C381.295 239.322 377.267 233.601 373.638 234.106C369.999 234.61 367.149 238.512 364.162 241.51C361.186 244.507 357.021 246.684 354.024 243.708C354.045 246.474 351.794 248.304 349.848 248.072C347.913 247.852 346.188 246.295 344.411 245.191C337.543 240.91 328.825 243.75 323.945 251.848C326.995 238.87 331.464 223.978 340.835 220.928C344.663 219.676 348.839 220.707 352.457 218.54C358.862 214.702 360.155 200.198 354.623 194.214C355.328 199.872 355.191 206.477 352.204 210.347C349.217 214.218 342.949 211.694 343.328 205.972C342.465 209.916 338.174 210.516 336.197 207.487C334.209 204.458 334.378 199.504 335.787 195.886C337.196 192.268 339.594 189.671 341.918 187.178C346.914 181.825 351.983 176.409 357.768 173.043C363.563 169.678 370.252 168.542 376.057 171.886C379.118 173.653 381.81 176.598 384.933 178.155C388.057 179.722 392.022 179.522 394.094 175.862C396.418 171.781 395.324 165.723 396.187 160.623C397.733 151.609 406.746 147.392 411.741 153.345C408.008 152.388 404.148 156.805 403.685 162.158C403.212 167.511 405.915 172.917 409.533 174.537C415.612 177.229 421.564 170.456 426.161 164.188C430.956 157.625 435.759 151.066 440.569 144.51C441.337 143.394 442.199 142.346 443.146 141.376C444.652 139.908 446.66 139.067 448.763 139.024C450.867 138.981 452.907 139.739 454.473 141.145C459.331 145.11 461.614 153.24 465.6 158.835C471.384 166.964 480.04 168.942 488.096 170.519C494.101 171.687 500.11 172.861 506.122 174.042C510.13 181.498 513.626 189.218 516.587 197.149C506.406 201.471 497.014 209.559 489.642 220.444Z" fill="white"/>
<path d="M509.056 346.986C504.551 356.135 499.31 364.904 493.386 373.205C489.6 371.586 485.53 374.478 481.985 377.191C478.283 380.031 473.835 382.797 470.038 380.21C466.157 377.559 464.906 370.145 466.136 364.266C467.367 358.397 470.437 353.728 473.414 349.289C476.569 344.578 479.945 339.687 484.331 337.857C488.727 336.027 494.374 338.615 495.658 344.862L498.771 344.757C497.025 342.359 497.94 337.394 500.285 336.522C502.988 335.502 505.333 339.214 506.932 342.495C507.647 343.978 508.373 345.472 509.056 346.986Z" fill="white"/>
<path d="M389.828 302.562C383.137 302.983 377.837 294.746 374.315 286.642C370.793 278.538 367.579 269.271 361.541 265.146C358.092 262.789 354.159 262.466 350.417 261.324C346.675 260.182 342.758 257.818 340.969 253.006L336.725 251.291C331.119 254.443 325.439 257.653 320.609 262.782C315.191 268.537 311.817 275.914 311.006 283.775C310.195 292.271 313.19 301.745 318.784 304.937C323.205 307.458 328.352 305.869 332.829 308.178C338.424 311.062 341.745 319.441 343.003 327.714C344.26 335.988 343.941 344.586 344.841 352.953C345.74 361.32 348.22 370.026 353.35 374.314C359.771 379.68 369.191 375.221 372.072 365.454C373.485 360.663 373.436 355.256 374.493 350.283C376.354 341.525 381.376 335.027 385.359 327.842C389.342 320.658 392.478 310.9 389.828 302.562Z" fill="white"/>
<path d="M323.708 216.5C324.332 217.074 324.914 217.692 325.45 218.349C326.005 219.306 326.289 220.396 326.27 221.502C326.251 222.608 325.931 223.688 325.343 224.625C326.149 224.579 326.937 224.367 327.657 224.001C328.377 223.635 329.013 223.124 329.525 222.5C330.746 221.109 331.82 219.596 332.731 217.984C333.413 216.871 334.139 215.367 333.676 214.045C333.36 213.143 332.612 212.758 332.088 212.079C331.258 211.004 331.052 209.296 330.622 207.82C329.693 204.632 327.469 202.288 325.055 201.953L325.39 202.017C324.381 202.363 323.677 203.964 323.9 205.406C324.103 206.718 324.947 207.808 324.863 209.146C324.742 211.071 322.818 211.974 322.7 213.899C322.681 214.865 323.043 215.799 323.708 216.5Z" fill="white"/>
<path d="M312.244 183.791C312.253 183.788 312.263 183.787 312.273 183.785C312.479 183.597 312.67 183.394 312.844 183.177L312.244 183.791Z" fill="#E6E6E6"/>
<path d="M314.25 192.826C315.73 191.875 316.556 189.244 316.067 187.041C315.581 184.853 313.86 183.381 312.273 183.786C311.813 184.252 311.242 184.594 310.613 184.779C309.984 184.965 309.318 184.987 308.678 184.844C307.697 184.591 306.62 183.941 305.769 184.68C305.283 185.232 304.942 185.897 304.778 186.615C304.464 187.582 304.149 188.549 303.834 189.515C303.684 189.861 303.645 190.245 303.722 190.614C303.782 190.762 303.88 190.892 304.005 190.991C304.13 191.091 304.278 191.156 304.436 191.182C306.326 191.739 308.215 192.296 310.105 192.853C311.482 193.259 312.969 193.65 314.25 192.826Z" fill="white"/>
<path d="M456.906 317.557C456.033 316.127 455.159 314.697 454.286 313.267C453.428 311.611 452.255 310.138 450.833 308.931C450.52 308.669 450.158 308.472 449.768 308.352C449.378 308.232 448.968 308.191 448.563 308.232C448.157 308.273 447.763 308.394 447.405 308.589C447.047 308.784 446.731 309.049 446.477 309.367L446.583 310.184C448.574 312.682 450.68 315.457 451.185 319.165C451.385 320.626 451.315 322.139 451.49 323.607C451.665 325.074 452.161 326.597 453.108 327.23C454.484 328.148 456.099 326.794 457.078 325.14C457.953 323.783 458.345 322.17 458.192 320.562C457.974 319.483 457.536 318.46 456.906 317.557Z" fill="white"/>
<path d="M495.782 262.94C496.034 261.283 496.287 259.627 496.54 257.97C496.95 256.15 497.001 254.268 496.69 252.429C496.619 252.027 496.469 251.644 496.248 251.301C496.027 250.958 495.74 250.663 495.403 250.433C495.067 250.202 494.687 250.042 494.288 249.96C493.888 249.879 493.476 249.878 493.076 249.958L492.632 250.651C492.546 253.844 492.371 257.324 490.37 260.486C489.581 261.732 488.554 262.845 487.742 264.08C486.931 265.315 486.33 266.8 486.647 267.894C487.108 269.483 489.216 269.486 491.029 268.852C492.573 268.377 493.912 267.395 494.831 266.066C495.359 265.1 495.682 264.036 495.782 262.94Z" fill="#E6E6E6"/>
<path d="M470.609 319.418C471.036 318.191 470.42 316.783 470.289 315.426C470.227 313.673 470.691 311.942 471.623 310.457C472.549 309.055 473.25 307.518 473.701 305.9C473.892 305.163 473.857 304.386 473.602 303.669C473.313 303.019 472.612 302.723 472.211 303.237L473.07 303.791C471.909 303.584 470.717 303.642 469.582 303.96C468.934 304.208 468.355 304.608 467.895 305.127C467.435 305.646 467.106 306.268 466.937 306.941C466.796 307.989 466.564 309.024 466.244 310.033C465.731 311.087 464.739 311.438 464.115 312.363C463.69 313.183 463.475 314.096 463.49 315.02C463.505 315.943 463.75 316.849 464.203 317.655C464.986 318.972 466.231 319.952 467.697 320.402C468.746 320.779 470.129 320.799 470.609 319.418Z" fill="white"/>
<path d="M495.011 326.781C495.391 327.768 495.899 328.702 496.523 329.556C497.691 330.733 499.279 330.009 500.696 329.723C501.982 329.52 503.299 329.669 504.508 330.154C505.716 330.638 506.771 331.441 507.56 332.477C507.011 329.736 505.811 327.166 504.063 324.985C502.314 322.803 500.068 321.073 497.512 319.94C494.171 318.578 490.652 318.447 487.178 318.324L486.578 318.478C488.107 322.93 492.909 322.83 495.011 326.781Z" fill="white"/>
<path d="M391.659 335.886L391.668 335.906C391.726 335.794 391.784 335.681 391.842 335.569L391.659 335.886Z" fill="#E6E6E6"/>
<path d="M387.957 343.051C387.15 344.517 386.455 346.042 385.88 347.614C385.119 350.159 384.614 352.774 384.375 355.42C384.187 356.924 384.129 358.846 385.071 359.579C385.342 359.759 385.669 359.834 385.991 359.79C386.313 359.746 386.608 359.587 386.82 359.341C387.344 358.787 387.772 358.151 388.088 357.457C389.941 354.266 391.379 350.852 392.369 347.298C393.271 343.554 393.262 339.147 391.668 335.905C390.431 338.287 389.194 340.669 387.957 343.051Z" fill="white"/>
<path d="M352.244 152.149C352.832 152.724 353.576 153.114 354.383 153.271C355.19 153.429 356.026 153.347 356.787 153.035C358.362 152.346 359.808 151.391 361.06 150.212C362.097 149.445 362.977 148.486 363.651 147.386C364.023 146.729 364.261 146.005 364.352 145.256C364.442 144.506 364.385 143.747 364.181 143.02C363.596 141.308 362.111 140.734 360.801 140.346C358.703 139.724 356.606 139.102 354.508 138.48L356.025 137.112C354.464 136.274 352.737 137.829 351.762 139.754C351.136 141.011 350.7 142.354 350.467 143.739C349.945 146.76 350.456 150.358 352.244 152.149Z" fill="#E6E6E6"/>
<path d="M389.275 139.718C389.866 140.37 390.683 140.772 391.56 140.843C392.437 140.915 393.308 140.65 393.997 140.102C394.59 139.657 395.082 139.092 395.442 138.444C395.802 137.795 396.021 137.079 396.086 136.34C396.234 134.69 395.419 132.856 394.254 132.714L394.52 131.169C392.276 130.764 389.514 130.683 388.311 133.408C387.906 134.452 387.781 135.585 387.95 136.692C388.119 137.799 388.576 138.843 389.275 139.718Z" fill="#E6E6E6"/>
<path d="M384.328 57.5736C371.171 56.0894 357.962 59.8929 347.609 68.1473C337.255 76.4017 330.605 88.4308 329.121 101.588C326.03 128.988 340.465 188.487 366.783 213.117C379.175 165.928 422.597 137.938 428.343 112.781C434.482 85.8998 411.728 60.6643 384.328 57.5736Z" fill="#95C11F"/>
<path d="M375.228 118.486C384.221 118.486 391.51 111.196 391.51 102.203C391.51 93.2108 384.221 85.9209 375.228 85.9209C366.236 85.9209 358.946 93.2108 358.946 102.203C358.946 111.196 366.236 118.486 375.228 118.486Z" fill="white"/>
<path d="M358.108 236.594C363.998 236.594 368.772 231.819 368.772 225.929C368.772 220.039 363.998 215.265 358.108 215.265C352.218 215.265 347.443 220.039 347.443 225.929C347.443 231.819 352.218 236.594 358.108 236.594Z" fill="#95C11F"/>
<path opacity="0.2" d="M388.7 90.5378C390.533 91.6391 392.131 93.0906 393.403 94.8094C394.674 96.5282 395.595 98.4808 396.112 100.555C396.63 102.63 396.733 104.786 396.417 106.901C396.101 109.016 395.372 111.048 394.27 112.88C393.169 114.713 391.717 116.311 389.999 117.583C388.28 118.855 386.327 119.775 384.253 120.293C380.063 121.337 375.629 120.675 371.928 118.45C375.702 119.29 379.651 118.759 383.069 116.953C386.488 115.146 389.151 112.182 390.584 108.591C392.017 105 392.124 101.017 390.888 97.3533C389.652 93.69 387.152 90.5863 383.837 88.5977C385.552 88.9778 387.194 89.6329 388.7 90.5378Z" fill="#231F20"/>
<path opacity="0.2" d="M428.407 112.834C422.661 137.991 379.238 165.981 366.847 213.17C364.371 210.831 362.073 208.313 359.969 205.635C373.894 161.278 414.614 134.326 420.165 110.02C425.134 88.2656 411.177 67.591 391.151 58.8574C415.393 64.9514 434.033 88.2 428.407 112.834Z" fill="#231F20"/>
<path d="M231.745 121.106C221.864 119.991 211.945 122.847 204.17 129.046C196.395 135.245 191.401 144.278 190.287 154.159C187.966 174.735 198.806 219.417 218.569 237.913C227.875 202.476 260.484 181.456 264.799 162.564C269.41 142.378 252.321 123.427 231.745 121.106Z" fill="#95C11F"/>
<path d="M224.912 166.849C231.665 166.849 237.139 161.374 237.139 154.621C237.139 147.868 231.665 142.394 224.912 142.394C218.158 142.394 212.684 147.868 212.684 154.621C212.684 161.374 218.158 166.849 224.912 166.849Z" fill="white"/>
<path d="M212.055 255.543C216.478 255.543 220.064 251.957 220.064 247.534C220.064 243.111 216.478 239.525 212.055 239.525C207.632 239.525 204.046 243.111 204.046 247.534C204.046 251.957 207.632 255.543 212.055 255.543Z" fill="#95C11F"/>
<path opacity="0.2" d="M235.029 145.86C236.405 146.687 237.605 147.777 238.56 149.068C239.515 150.359 240.207 151.825 240.595 153.383C240.983 154.941 241.061 156.561 240.824 158.149C240.586 159.737 240.039 161.262 239.212 162.639C238.385 164.015 237.295 165.215 236.004 166.17C234.713 167.125 233.247 167.817 231.689 168.205C230.131 168.594 228.511 168.671 226.923 168.434C225.335 168.197 223.809 167.649 222.433 166.822C225.267 167.452 228.233 167.053 230.8 165.697C233.367 164.34 235.367 162.114 236.443 159.418C237.519 156.721 237.6 153.729 236.672 150.979C235.743 148.228 233.866 145.897 231.376 144.403C232.665 144.689 233.898 145.181 235.029 145.86Z" fill="#231F20"/>
<path opacity="0.2" d="M264.847 162.604C260.532 181.496 227.923 202.515 218.617 237.952C216.759 236.196 215.032 234.305 213.453 232.294C223.91 198.984 254.489 178.744 258.658 160.491C262.389 144.154 251.908 128.628 236.869 122.069C255.074 126.646 269.072 144.105 264.847 162.604Z" fill="#231F20"/>
<path d="M614.563 564.054H601.138L594.751 512.27L614.566 512.271L614.563 564.054Z" fill="#A0616A"/>
<path d="M621.785 589.545H612.259L610.559 580.551L606.204 589.545H580.937C579.726 589.545 578.547 589.158 577.571 588.44C576.596 587.723 575.875 586.712 575.515 585.556C575.154 584.399 575.173 583.158 575.568 582.013C575.963 580.869 576.713 579.88 577.71 579.192L597.887 565.257V556.164L619.109 557.431L621.785 589.545Z" fill="#2F2E41"/>
<path d="M562.563 564.054H549.138L542.751 512.27L562.566 512.271L562.563 564.054Z" fill="#A0616A"/>
<path d="M569.785 589.545H560.259L558.559 580.551L554.204 589.545H528.937C527.726 589.545 526.547 589.158 525.571 588.44C524.596 587.723 523.875 586.712 523.515 585.556C523.154 584.399 523.173 583.158 523.568 582.013C523.963 580.869 524.713 579.88 525.71 579.192L545.887 565.257V556.164L567.109 557.431L569.785 589.545Z" fill="#2F2E41"/>
<path d="M511.559 427.333C514.128 431.186 542.078 537.126 542.078 537.126L566.86 539.952L563.919 513.297L559.423 466.127L552.46 434.642C552.46 434.642 577.047 378.685 578.602 374.228L579.706 371.029L587.388 440.744C588.301 443.233 588.698 445.881 588.557 448.528C588.326 452.883 592.693 518.397 592.693 518.397L594.793 541.892L616.026 544.842L624.641 504.189C631.835 490.984 627.711 444.058 624.77 439.69C621.828 435.323 622.997 404.904 622.997 404.904C626.753 403.582 649.153 327.198 637.949 327.649C638.669 323.576 639.234 319.941 639.234 319.941L619.785 304.256L571.112 291.603L558.833 285.707C558.833 285.707 536.901 326.261 537.119 328.278C537.421 330.833 536.836 333.413 535.462 335.587L513.319 409.695C513.319 409.695 508.964 423.44 511.559 427.333Z" fill="#2F2E41"/>
<path d="M633.841 162.147L626.098 145.707L599.744 146.72L591.147 163.823C591.147 163.823 566.581 193.166 565.785 202.707C564.785 214.707 573.097 273.519 564.785 269.707C564.785 269.707 545.191 292.707 556.785 292.707C568.38 292.707 620.828 325.631 624.269 329.334C627.711 333.036 643.074 335.437 641.785 327.707C640.497 319.977 633.841 278.173 633.841 278.173L651.86 212.44C657.046 198.249 658.66 182.33 646.937 172.797L633.841 162.147Z" fill="#EFEFEF"/>
<path d="M536.222 113.76C532.697 112.361 528.931 111.67 525.139 111.726C521.346 111.782 517.602 112.585 514.12 114.088C510.638 115.591 507.486 117.765 504.845 120.487C502.203 123.208 500.123 126.423 498.724 129.948C492.839 144.773 491.864 180.176 502.815 197.92C516.896 173.46 545.383 164.429 552.41 151.259C559.918 137.186 551.047 119.645 536.222 113.76Z" fill="#95C11F"/>
<path d="M524.367 146.709C529.569 146.709 533.786 142.492 533.786 137.29C533.786 132.088 529.569 127.871 524.367 127.871C519.165 127.871 514.948 132.088 514.948 137.29C514.948 142.492 519.165 146.709 524.367 146.709Z" fill="white"/>
<path d="M496.028 209.923C499.435 209.923 502.197 207.161 502.197 203.754C502.197 200.347 499.435 197.585 496.028 197.585C492.62 197.585 489.858 200.347 489.858 203.754C489.858 207.161 492.62 209.923 496.028 209.923Z" fill="#95C11F"/>
<path opacity="0.2" d="M533.658 132.824C535.384 134.628 536.323 137.043 536.268 139.539C536.214 142.035 535.171 144.407 533.369 146.134C531.567 147.862 529.152 148.803 526.657 148.751C524.161 148.699 521.788 147.659 520.058 145.859C522.038 146.9 524.323 147.203 526.505 146.714C528.687 146.224 530.624 144.974 531.969 143.187C533.314 141.4 533.979 139.193 533.845 136.961C533.711 134.728 532.787 132.616 531.238 131.003C532.138 131.475 532.955 132.091 533.658 132.824Z" fill="#231F20"/>
<path opacity="0.2" d="M552.437 151.297C545.411 164.467 516.924 173.499 502.843 197.958C501.816 196.277 500.915 194.522 500.148 192.708C514.654 170.063 541.476 161.2 548.264 148.475C554.34 137.086 549.688 123.427 539.836 115.512C552.442 122.594 559.318 138.401 552.437 151.297Z" fill="#231F20"/>
<path d="M493.247 201.63C494.681 201.334 496.163 201.357 497.588 201.696C499.012 202.035 500.345 202.682 501.492 203.591C502.64 204.501 503.574 205.651 504.228 206.961C504.883 208.271 505.243 209.708 505.282 211.172L526.65 219.374L524.833 233.575L494.819 221.568C492.356 221.471 490.014 220.474 488.237 218.765C486.46 217.056 485.371 214.755 485.177 212.297C484.984 209.84 485.698 207.396 487.185 205.43C488.673 203.464 490.83 202.112 493.247 201.63Z" fill="#A0616A"/>
<path d="M642.553 172.365C640.303 170.992 637.805 170.076 635.2 169.67C632.595 169.265 629.936 169.377 627.375 170.001C624.815 170.626 622.402 171.749 620.276 173.308C618.151 174.867 616.353 176.83 614.988 179.084L584.317 229.734L514.97 213.296L508.653 230.64L597.458 272.706L642.435 201.069C649.169 191.606 652.466 178.417 642.553 172.365Z" fill="#EFEFEF"/>
<path d="M643.699 110.293C643.7 115.174 642.504 119.982 640.214 124.293C637.924 128.604 634.611 132.287 630.565 135.019C626.52 137.751 621.865 139.448 617.01 139.961C612.156 140.474 607.249 139.788 602.722 137.962C598.195 136.137 594.185 133.227 591.044 129.49C587.904 125.753 585.728 121.302 584.71 116.528C583.691 111.754 583.859 106.802 585.201 102.109C586.542 97.4149 589.015 93.1222 592.403 89.6074L592.546 89.4644C592.785 89.2138 593.024 88.9633 593.274 88.7246C593.276 88.7247 593.277 88.7244 593.279 88.7238C593.28 88.7232 593.281 88.7223 593.283 88.7212C593.284 88.7201 593.285 88.7188 593.285 88.7173C593.286 88.7158 593.286 88.7143 593.286 88.7127C593.596 88.4264 593.906 88.1401 594.228 87.8658C598.538 84.0877 603.845 81.6316 609.514 80.7917C615.183 79.9518 620.974 80.7635 626.194 83.1299C631.414 85.4962 635.841 89.3167 638.945 94.1341C642.05 98.9515 643.7 104.562 643.699 110.293Z" fill="#2F2E41"/>
<path d="M606.528 142.201C620.34 142.201 631.536 131.005 631.536 117.193C631.536 103.382 620.34 92.1855 606.528 92.1855C592.717 92.1855 581.52 103.382 581.52 117.193C581.52 131.005 592.717 142.201 606.528 142.201Z" fill="#9E616A"/>
<path d="M633.084 124.325L628.941 123.593C626.626 123.172 624.494 122.055 622.831 120.39C621.168 118.724 620.054 116.591 619.636 114.276L615.593 121.052L615.416 121.11C605.784 124.308 595.761 123.352 584.783 118.19C581.644 116.701 578.599 115.022 575.664 113.162L575.448 113.027L575.43 112.773C574.87 104.637 576.696 97.8411 580.572 93.6355C582.06 92.0532 583.865 90.8033 585.87 89.9675C587.875 89.1318 590.034 88.7291 592.205 88.7859C592.36 88.7456 592.502 88.6672 592.618 88.5579C592.674 88.5169 592.73 88.4764 592.785 88.4378V88.3958L593.073 88.2605C593.69 87.9705 594.319 87.6927 594.948 87.4388C599.896 85.5232 605.284 85.0427 610.494 86.0524C615.703 87.0621 620.522 89.5211 624.396 93.1468C632.099 100.501 635.632 112.842 633.188 123.858L633.084 124.325Z" fill="#2F2E41"/>
<path d="M685.831 145.632C677.321 141.24 688.266 125.298 686.066 115.977C683.867 106.656 668.029 103.658 667.02 94.1346C666.012 84.6111 663.638 74.7886 657.354 67.5621C653.338 62.9444 647.421 59.5354 641.329 60.1138C639.267 60.3095 637.273 60.9472 635.48 61.9833C633.687 63.0195 632.139 64.4299 630.941 66.1183C629.742 67.8068 628.922 69.7337 628.535 71.7678C628.149 73.802 628.205 75.8955 628.7 77.9059C626.966 75.4481 622.477 75.9808 621.366 78.7764C620.378 81.2617 622.56 84.2721 625.128 84.492C628.489 88.642 632.337 93.0463 637.602 93.8834C638.441 94.076 639.312 94.0756 640.151 93.882C640.989 93.6884 641.773 93.3069 642.443 92.7661C643.681 91.5767 643.777 89.1987 642.308 88.3098C648.924 90.938 652.803 98.0914 653.785 105.142C654.767 112.193 653.408 119.328 652.513 126.39C651.619 133.453 651.233 140.882 654.002 147.441C657.274 155.189 664.807 160.743 673.027 162.524C681.248 164.305 690.003 162.565 697.444 158.643C704.885 154.721 711.09 148.733 716.159 142.021C707.427 148.221 695.347 150.544 685.831 145.632Z" fill="#2F2E41"/>
<path d="M632.02 123.629C632.02 123.629 624.612 95.9778 592.857 89.5956C592.821 89.5838 592.701 89.536 592.546 89.4646C592.451 89.4049 592.332 89.3452 592.212 89.2856C592.57 89.0827 592.916 88.9039 593.274 88.7248L593.279 88.7239L593.283 88.7214L593.285 88.7175L593.286 88.7129C593.596 88.4266 593.906 88.1403 594.228 87.8659L595.135 87.9018C595.135 87.9018 626.998 82.8557 632.02 123.629Z" fill="#FD6584"/>
<path opacity="0.2" d="M615.434 212.357L597.499 233.136L567.864 224.385L600.171 239.273L615.434 212.357Z" fill="black"/>
<path d="M735.189 406.072C722.277 406.072 708.125 405.584 692.733 404.608C613.119 399.553 509.995 381.976 402.357 355.116C294.719 328.257 195.427 295.322 122.771 262.382C87.3789 246.335 60.2153 231.146 42.0361 217.234C22.789 202.507 14.3701 189.67 17.0122 179.082C22.1602 158.453 67.7432 153.939 105.076 153.786L105.089 156.786C53.8208 156.997 23.5752 165.173 19.9233 179.808C15.2715 198.448 53.21 227.549 124.01 259.649C196.506 292.518 295.616 325.389 403.083 352.206C510.551 379.022 613.485 396.569 692.923 401.614C770.502 406.542 817.667 398.677 822.318 380.036C826.18 364.56 800.72 341.761 750.628 315.838L752.007 313.174C788.404 332.01 830.653 359.025 825.229 380.763C822.586 391.352 809.124 398.728 785.214 402.686C771.585 404.941 754.844 406.072 735.189 406.072Z" fill="#95C11F"/>
</g>
<defs>
<clipPath id="clip0_1291_1660">
<rect width="825.202" height="591.419" fill="white" transform="translate(0.5)"/>
</clipPath>
</defs>
</svg>
